<?xml version="1.0" encoding="UTF-8"?>
<svg id="Layer_1" data-name="Layer 1" xmlns="http://www.w3.org/2000/svg" viewBox="0 0 4908.53 5025.03">
  <path d="m3406.47.84c-252.19,41.88-223,516.06,43.5,486.1,243.86-44.86,220.14-509.32-43.5-486.1Z"/>
  <path d="m3943.07,96.44c-220.67,23.65-257.01,444.8-9.6,451.7,130.44-4.26,209.26-159.66,189.2-287.1-12.75-91.43-84.6-174.61-179.6-164.6Z"/>
  <path d="m2735.17,97.94c-252.57,36.45-318.33,366.18-209.7,568,156.13,312.3,541.35,237.89,573.59-110.5,24.65-216.26-127.92-478.78-363.9-457.49Z"/>
  <path d="m4406.07,322.94c-164.27,20.93-243.35,292.4-110.1,396.9,47.65,38.17,113.97,39.23,169.2,6.6,162.48-90.02,160.96-419.53-59.1-403.5Z"/>
  <path d="m3601.27,631.54c-504.88,8-720.35,568.67-673.29,1030.41,32.45,557.7,391.45,615.95,22.49,1181.99-110.99,186.95-162.73,275.17-189.5,460.8-53.77,333.57,143.7,698.75,504.51,666.79,494.31-41.31,930.07-924.56,1099.51-1369.58,312.68-751.22,414.49-1732.12-548.63-1949.51-80.3-20.68-135.75-22.18-215.09-20.91Z"/>
  <path d="m4758.97,688.44c-168.7,11.5-266.27,301.51-88.5,372.4,130.72,41.83,257.81-116.99,235.49-244.9-10.72-79.68-70.24-133.76-147-127.5Z"/>
  <path d="m1459.47,1052.44c-181.21,28.81-220.73,292.49-114.3,417.5,78.76,101.69,221.85,89.99,287.6-17,99-139.81,22.98-417.59-173.3-400.5Z"/>
  <path d="m936.97,1148.14c-231.24,31.65-184.98,427.21,23.8,451.3,101.65,11.22,172.48-74.94,183.79-174.5,15.99-130.18-71.51-285.12-207.6-276.8Z"/>
  <path d="m2119.47,1149.14c-210.16,23.27-334.31,259.29-310.5,464.3,68.15,459.03,578.63,357.97,620.99-58.01,27.47-192.17-100.25-427.02-310.49-406.29Z"/>
  <path d="m466.47,1374.04c-243.52,42.22-137.5,465.33,85.5,425.4,222.46-57.7,125.53-444.09-85.5-425.4Z"/>
  <path d="m1250.47,1683.14c-1060.38,108.36-1067.27,1080.91-730.69,1911.3,177.98,479.62,606.95,1365.3,1109.67,1428.22,382.43,35.78,582.18-341.04,511.41-703.72-19.77-133.59-91.7-273.82-180.89-418.1-420.49-629.28,103.03-697.59,17.49-1446.4-35.59-425.18-292.41-790.37-726.99-771.3Z"/>
  <path d="m122.37,1740.54c-205.85,34.23-126.11,354.48,48.4,377.1,83,13.76,151.74-44.95,159.7-134.1,13.32-115.44-84.78-253.58-208.1-243Z"/>
</svg>