<?xml version="1.0" encoding="UTF-8"?>
<svg id="Layer_1" data-name="Layer 1" xmlns="http://www.w3.org/2000/svg" viewBox="0 0 850.39 695.8">
  <defs>
    <style>
      .cls-1 {
        stroke-dasharray: 0 0 11.76 24.51;
      }

      .cls-1, .cls-2 {
        fill: none;
        stroke: #000;
        stroke-linecap: round;
        stroke-miterlimit: 10;
        stroke-width: 15px;
      }

      .cls-3 {
        font-family: DarkerGrotesque-Black, 'Darker Grotesque Black';
        font-size: 193px;
        font-weight: 800;
      }
    </style>
  </defs>
  <g>
    <path class="cls-2" d="m53.06,451.3s86.5,237.5,367,237c280.5-.5,362-237,362-237"/>
    <path d="m75.86,436.36c2.54,21.63,5.07,43.25,7.62,64.88,11.05-15.75,10.15-31.81,9.3-50.07-.32-6.7-.62-13.4-.94-20.1-.1-1.98-1.56-8.62-.07-10.16,4.92-5.09,9.87-10.25,12.67-16.85,1.43-3.39,2.31-10.03,6.75-10.29,3.82-.23,7.03,3.47,11.57,2.69,6.91-1.18,12.77-7.47,14.22-14.21,1.54-7.16-2.16-14.86-9.57-16.5-11.16-2.47-17.7,8.08-20.14,17.24-1.79,6.72-3.44,13.35-7.7,18.99-2.04,2.72-4.27,5.35-6.89,7.54-3.11,2.59-4.24,3.71-7.25,1.56-11.21-8.03-5.98-22.61-4.52-33.1,2.49-17.91-18-24.53-27.1-9.4-3.39,5.64-3.65,13.35.87,18.48,2.3,2.6,5.53,4.09,8.95,4.51,3.34.41,7.83-1.62,9.88,1.31,2.5,3.58.86,15.07,1.08,19.24.5,9.24.48,9.09-6.53,15.15-5.22,4.52-10.43,9.02-15.57,13.62-1.6,1.42-6.43,4.12-5.6,6.38,1.34,3.67,2.67,7.34,4.01,11.01,8.8-6.95,16.83-14.22,24.96-21.94Zm44.51-44.56c-13.8-1.06-7.58-21.37,3.27-21.97,15.15-.85,9.72,23.22-3.27,21.97Zm-43.61-16.17c-1.02,13.87-21.87,16.03-21.11,1.09.72-14.21,22.72-16.74,21.11-1.09Z"/>
    <rect x="774.86" y="404.5" width="14.4" height="93.6" transform="translate(100.58 1043.65) rotate(-70.99)"/>
  </g>
  <text class="cls-3" transform="translate(205.57 150.83)"><tspan x="0" y="0">BARE</tspan><tspan x="8.49" y="318">FOOT</tspan></text>
  <g>
    <path class="cls-2" d="m178,340.17s.14-2.17.59-5.97"/>
    <path class="cls-1" d="m182.75,310.06c5.62-25.03,17.59-60.08,42.6-82.66,38.7-34.95,110.44-34.22,202.65-34.22,172.34,0,234.57,91.45,253.17,130.09"/>
    <path class="cls-2" d="m686.04,334.51c1.38,3.62,1.96,5.66,1.96,5.66"/>
  </g>
</svg>